# Blender 4.2.1 LTS
# www.blender.org
o dobj
v -0.750000 1.785660 -0.750000
v -1.041054 1.733748 -0.385531
v -1.230203 1.583092 0.016677
v -1.298931 1.348440 0.417253
v -1.240511 1.052762 0.776985
v -1.060660 0.725000 1.060660
v -0.776985 0.397238 1.240510
v -0.417253 0.101560 1.298931
v -0.016678 -0.133092 1.230203
v 0.385530 -0.283748 1.041054
v 0.750000 -0.335660 0.750000
v 1.041054 -0.283748 0.385531
v 1.230203 -0.133092 -0.016678
v 1.298931 0.101560 -0.417253
v 1.240511 0.397238 -0.776985
v 1.060660 0.725000 -1.060660
v 0.776985 1.052762 -1.240510
v 0.417254 1.348440 -1.298931
v 0.016678 1.583092 -1.230203
v -0.385530 1.733748 -1.041054
v -0.712500 1.838693 -0.712500
v -1.003554 1.786781 -0.348031
v -1.192703 1.636125 0.054177
v -1.261431 1.401474 0.454753
v -1.203011 1.105795 0.814485
v -1.023160 0.778033 1.098160
v -0.739485 0.450271 1.278010
v -0.379753 0.154593 1.336431
v 0.020822 -0.080059 1.267703
v 0.423030 -0.230715 1.078555
v 0.787500 -0.282627 0.787500
v 1.078555 -0.230715 0.423031
v 1.267703 -0.080059 0.020822
v 1.336431 0.154593 -0.379753
v 1.278011 0.450271 -0.739485
v 1.098160 0.778033 -1.023160
v 0.814485 1.105795 -1.203010
v 0.454754 1.401473 -1.261431
v 0.054178 1.636125 -1.192703
v -0.348030 1.786781 -1.003554
v -0.896926 1.786411 -0.565078
v -1.140020 1.683864 -0.176961
v -1.270566 1.488809 0.229434
v -1.275784 1.220339 0.614327
v -1.155163 0.904733 0.940040
v -0.920512 0.572885 1.174692
v -0.594798 0.257279 1.295313
v -0.209906 -0.011191 1.290095
v 0.196489 -0.206246 1.159549
v 0.584607 -0.308793 0.916455
v 0.916454 -0.308793 0.584607
v 1.159549 -0.206246 0.196490
v 1.290095 -0.011191 -0.209905
v 1.295313 0.257279 -0.594797
v 1.174692 0.572885 -0.920511
v 0.940040 0.904733 -1.155163
v 0.614327 1.220339 -1.275783
v 0.229435 1.488809 -1.270566
v -0.176961 1.683864 -1.140020
v -0.565078 1.786411 -0.896926
v -0.878645 1.812263 -0.546798
v -1.121740 1.709716 -0.158681
v -1.252286 1.514661 0.247714
v -1.257504 1.246191 0.632607
v -1.136883 0.930585 0.958320
v -0.902231 0.598737 1.192972
v -0.576518 0.283131 1.313593
v -0.191625 0.014661 1.308375
v 0.214770 -0.180394 1.177829
v 0.602887 -0.282941 0.934735
v 0.934735 -0.282941 0.602887
v 1.177829 -0.180394 0.214770
v 1.308375 0.014661 -0.191625
v 1.313593 0.283131 -0.576517
v 1.192972 0.598737 -0.902231
v 0.958321 0.930585 -1.136883
v 0.632607 1.246191 -1.257503
v 0.247715 1.514661 -1.252285
v -0.158680 1.709716 -1.121740
v -0.546798 1.812263 -0.878645
v -0.823564 1.792774 -0.657127
v -0.969541 1.766738 -0.474329
v -1.091465 1.715306 -0.279671
v -1.186331 1.639745 -0.077945
v -1.251806 1.541916 0.125881
v -1.286276 1.424227 0.326788
v -1.288893 1.289577 0.519830
v -1.259593 1.141281 0.700252
v -1.199096 0.982990 0.863612
v -1.108893 0.818602 1.005888
v -0.991204 0.652165 1.123577
v -0.848928 0.487777 1.213780
v -0.685568 0.329486 1.274277
v -0.505146 0.181190 1.303578
v -0.312104 0.046540 1.300961
v -0.111197 -0.071149 1.266490
v 0.092629 -0.168978 1.201016
v 0.294355 -0.244539 1.106149
v 0.489013 -0.295971 0.984226
v 0.671812 -0.322007 0.838249
v 0.838249 -0.322007 0.671812
v 0.984226 -0.295971 0.489014
v 1.106149 -0.244539 0.294355
v 1.201016 -0.168978 0.092629
v 1.266490 -0.071149 -0.111197
v 1.300961 0.046540 -0.312104
v 1.303578 0.181190 -0.505145
v 1.274277 0.329486 -0.685567
v 1.213781 0.487777 -0.848927
v 1.123577 0.652165 -0.991204
v 1.005889 0.818602 -1.108892
v 0.863612 0.982990 -1.199096
v 0.700252 1.141281 -1.259593
v 0.519830 1.289577 -1.288893
v 0.326789 1.424227 -1.286276
v 0.125882 1.541916 -1.251806
v -0.077944 1.639745 -1.186331
v -0.279670 1.715306 -1.091465
v -0.474329 1.766738 -0.969541
v -0.657127 1.792774 -0.823564
v -0.800516 1.825369 -0.634080
v -0.946493 1.799332 -0.451281
v -1.068416 1.747900 -0.256623
v -1.163283 1.672340 -0.054897
v -1.228758 1.574511 0.148929
v -1.263228 1.456822 0.349836
v -1.265845 1.322172 0.542878
v -1.236545 1.173875 0.723300
v -1.176048 1.015585 0.886660
v -1.085845 0.851197 1.028936
v -0.968156 0.684760 1.146625
v -0.825880 0.520372 1.236828
v -0.662520 0.362081 1.297325
v -0.482098 0.213785 1.326626
v -0.289056 0.079135 1.324009
v -0.088149 -0.038554 1.289538
v 0.115677 -0.136383 1.224064
v 0.317403 -0.211944 1.129197
v 0.512061 -0.263376 1.007274
v 0.694860 -0.289412 0.861297
v 0.861297 -0.289412 0.694860
v 1.007274 -0.263376 0.512062
v 1.129197 -0.211944 0.317403
v 1.224064 -0.136383 0.115677
v 1.289538 -0.038554 -0.088149
v 1.324009 0.079135 -0.289056
v 1.326626 0.213785 -0.482097
v 1.297325 0.362081 -0.662519
v 1.236829 0.520372 -0.825880
v 1.146625 0.684760 -0.968156
v 1.028937 0.851197 -1.085844
v 0.886660 1.015585 -1.176048
v 0.723300 1.173876 -1.236544
v 0.542878 1.322172 -1.265845
v 0.349837 1.456822 -1.263228
v 0.148930 1.574511 -1.228758
v -0.054896 1.672340 -1.163283
v -0.256622 1.747901 -1.068417
v -0.451281 1.799332 -0.946494
v -0.634080 1.825369 -0.800516
v -0.603256 1.801016 -0.093545
v -0.803771 1.501415 0.530669
v -0.618501 1.016652 1.030958
v -0.118212 0.531888 1.216229
v 0.506003 0.232287 1.015714
v 1.015714 0.232287 0.506003
v 1.216229 0.531888 -0.118212
v 1.030959 1.016652 -0.618501
v 0.530670 1.501415 -0.803771
v -0.093545 1.801016 -0.603256
v -0.079923 1.773234 -0.079923
v -0.342798 1.662343 0.339775
v -0.348441 1.372028 0.755986
v -0.094696 1.013178 1.009731
v 0.321515 0.722862 1.004088
v 0.741213 0.611971 0.741213
v 1.004088 0.722862 0.321515
v 1.009731 1.013178 -0.094695
v 0.755985 1.372028 -0.348441
v 0.339775 1.662343 -0.342798
v -0.916129 0.707729 -0.578374
v -1.048998 0.509202 -0.164745
v -0.926231 0.187978 0.166767
v -0.594719 -0.133246 0.289534
v -0.181090 -0.331773 0.156665
v 0.156665 -0.331773 -0.181090
v 0.289535 -0.133246 -0.594719
v 0.166767 0.187978 -0.926231
v -0.164744 0.509202 -1.048998
v -0.578374 0.707729 -0.916129
v -0.744610 -0.328038 -0.744611
vn -0.5274 0.7066 -0.4719
vn -0.4719 0.7066 -0.5274
vn -0.7138 0.6634 -0.2244
vn -0.6732 0.6806 -0.2893
vn -0.8304 0.5553 0.0451
vn -0.8086 0.5879 -0.0229
vn -0.8657 0.3928 0.3102
vn -0.8648 0.4378 0.2458
vn -0.8163 0.1919 0.5448
vn -0.8365 0.2447 0.4903
vn -0.6869 -0.0278 0.7262
vn -0.7262 0.0278 0.6869
vn -0.4903 -0.2447 0.8365
vn -0.5448 -0.1919 0.8163
vn -0.2458 -0.4378 0.8648
vn -0.3102 -0.3928 0.8657
vn 0.0229 -0.5879 0.8086
vn -0.0451 -0.5553 0.8304
vn 0.2893 -0.6806 0.6732
vn 0.2244 -0.6634 0.7138
vn 0.5274 -0.7066 0.4719
vn 0.4719 -0.7066 0.5274
vn 0.7138 -0.6634 0.2244
vn 0.6732 -0.6806 0.2893
vn 0.8304 -0.5553 -0.0451
vn 0.8086 -0.5879 0.0229
vn 0.8657 -0.3928 -0.3102
vn 0.8648 -0.4378 -0.2458
vn 0.8163 -0.1919 -0.5448
vn 0.8365 -0.2447 -0.4903
vn 0.6869 0.0278 -0.7262
vn 0.7262 -0.0278 -0.6869
vn 0.4903 0.2447 -0.8365
vn 0.5448 0.1919 -0.8163
vn 0.2458 0.4378 -0.8648
vn 0.3102 0.3928 -0.8657
vn -0.0229 0.5879 -0.8086
vn 0.0451 0.5553 -0.8304
vn -0.2893 0.6806 -0.6732
vn -0.2244 0.6634 -0.7138
vn -0.5796 0.7022 -0.4134
vn -0.6283 0.6935 -0.3524
vn -0.7501 0.6422 -0.1580
vn -0.7818 0.6169 -0.0907
vn -0.8471 0.5192 0.1128
vn -0.8586 0.4800 0.1798
vn -0.8613 0.3455 0.3726
vn -0.8515 0.2960 0.4328
vn -0.7911 0.1379 0.5960
vn -0.7610 0.0831 0.6434
vn -0.6434 -0.0831 0.7610
vn -0.5960 -0.1379 0.7911
vn -0.4328 -0.2960 0.8515
vn -0.3726 -0.3455 0.8613
vn -0.1798 -0.4800 0.8586
vn -0.1128 -0.5192 0.8471
vn 0.0907 -0.6169 0.7818
vn 0.1580 -0.6422 0.7501
vn 0.3524 -0.6935 0.6283
vn 0.4134 -0.7022 0.5796
vn 0.5796 -0.7022 0.4134
vn 0.6283 -0.6935 0.3524
vn 0.7501 -0.6422 0.1580
vn 0.7818 -0.6169 0.0907
vn 0.8471 -0.5192 -0.1128
vn 0.8586 -0.4800 -0.1798
vn 0.8613 -0.3455 -0.3726
vn 0.8515 -0.2960 -0.4328
vn 0.7911 -0.1379 -0.5960
vn 0.7610 -0.0831 -0.6434
vn 0.6434 0.0831 -0.7610
vn 0.5960 0.1379 -0.7911
vn 0.4328 0.2960 -0.8515
vn 0.3726 0.3455 -0.8613
vn 0.1798 0.4800 -0.8586
vn 0.1128 0.5192 -0.8471
vn -0.0907 0.6169 -0.7818
vn -0.1580 0.6422 -0.7501
vn -0.3524 0.6935 -0.6283
vn -0.4134 0.7022 -0.5796
vn 0.0751 0.9937 -0.0832
vn 0.2602 0.9448 -0.1991
vn -0.1991 0.9448 0.2602
vn -0.0832 0.9937 0.0751
vn -0.2639 0.7237 0.6377
vn -0.2614 0.8517 0.4541
vn -0.0944 0.4149 0.9050
vn -0.2063 0.5731 0.7930
vn 0.2445 0.1363 0.9600
vn 0.0609 0.2643 0.9625
vn 0.6235 -0.0057 0.7818
vn 0.4384 0.0432 0.8977
vn 0.8977 0.0432 0.4384
vn 0.7818 -0.0057 0.6235
vn 0.9625 0.2643 0.0609
vn 0.9600 0.1363 0.2445
vn 0.7930 0.5731 -0.2063
vn 0.9050 0.4149 -0.0944
vn 0.4541 0.8517 -0.2614
vn 0.6377 0.7237 -0.2639
vn 0.0436 0.9588 0.2806
vn -0.1576 0.9091 0.3857
vn -0.0497 0.8195 0.5709
vn -0.1621 0.6780 0.7170
vn 0.0365 0.5940 0.8036
vn 0.0398 0.3923 0.9190
vn 0.2692 0.3686 0.8898
vn 0.3711 0.1612 0.9145
vn 0.5595 0.2293 0.7965
vn 0.7052 0.0730 0.7052
vn 0.7965 0.2293 0.5595
vn 0.9145 0.1612 0.3711
vn 0.8898 0.3686 0.2692
vn 0.9190 0.3923 0.0398
vn 0.8036 0.5940 0.0365
vn 0.7170 0.6780 -0.1621
vn 0.5709 0.8195 -0.0497
vn 0.3857 0.9091 -0.1576
vn 0.2806 0.9588 0.0436
vn 0.0516 0.9973 0.0516
vn 0.5000 0.7071 0.5000
vn -0.7827 0.0216 -0.6220
vn -0.6220 0.0216 -0.7827
vn -0.9637 -0.1225 -0.2371
vn -0.9005 -0.0280 -0.4340
vn -0.9078 -0.4055 0.1071
vn -0.9662 -0.2526 -0.0507
vn -0.6364 -0.7191 0.2792
vn -0.7942 -0.5662 0.2208
vn -0.2531 -0.9436 0.2134
vn -0.4499 -0.8491 0.2767
vn 0.0957 -0.9933 -0.0651
vn -0.0651 -0.9933 0.0957
vn 0.2767 -0.8491 -0.4499
vn 0.2134 -0.9436 -0.2531
vn 0.2208 -0.5662 -0.7942
vn 0.2792 -0.7191 -0.6364
vn -0.0507 -0.2526 -0.9662
vn 0.1071 -0.4055 -0.9078
vn -0.4340 -0.0280 -0.9005
vn -0.2371 -0.1225 -0.9637
vn -0.7071 -0.0036 -0.7071
vn -0.9327 -0.0988 -0.3470
vn -0.9375 -0.3478 0.0101
vn -0.7198 -0.6558 0.2278
vn -0.3627 -0.9048 0.2230
vn -0.0025 -1.0000 -0.0025
vn 0.2230 -0.9048 -0.3627
vn 0.2278 -0.6558 -0.7198
vn 0.0101 -0.3478 -0.9375
vn -0.3470 -0.0988 -0.9327
vn 0.0752 0.9937 -0.0834
vn 0.0749 0.9937 -0.0830
vn 0.0781 0.9938 -0.0795
vn 0.2600 0.9449 -0.1992
vn 0.2623 0.9451 -0.1949
vn 0.2605 0.9447 -0.1992
vn -0.1992 0.9447 0.2605
vn -0.1949 0.9451 0.2623
vn -0.1992 0.9449 0.2600
vn -0.0830 0.9937 0.0749
vn -0.0834 0.9937 0.0752
vn -0.0795 0.9938 0.0781
vn -0.2638 0.7235 0.6379
vn -0.2594 0.7250 0.6380
vn -0.2640 0.7238 0.6375
vn -0.2613 0.8519 0.4539
vn -0.2616 0.8516 0.4543
vn -0.2569 0.8525 0.4553
vn -0.0942 0.4147 0.9051
vn -0.0907 0.4176 0.9041
vn -0.0947 0.4149 0.9049
vn -0.2064 0.5733 0.7929
vn -0.2064 0.5729 0.7932
vn -0.2021 0.5752 0.7927
vn 0.2448 0.1362 0.9600
vn 0.2467 0.1403 0.9589
vn 0.2443 0.1363 0.9601
vn 0.0608 0.2645 0.9625
vn 0.0610 0.2641 0.9626
vn 0.0640 0.2678 0.9614
vn 0.6237 -0.0057 0.7816
vn 0.6239 -0.0010 0.7815
vn 0.6233 -0.0058 0.7819
vn 0.4382 0.0433 0.8978
vn 0.4385 0.0430 0.8977
vn 0.4396 0.0477 0.8969
vn 0.8978 0.0433 0.4382
vn 0.8969 0.0477 0.4397
vn 0.8977 0.0430 0.4385
vn 0.7816 -0.0057 0.6237
vn 0.7819 -0.0058 0.6233
vn 0.7815 -0.0010 0.6239
vn 0.9625 0.2645 0.0608
vn 0.9614 0.2678 0.0640
vn 0.9626 0.2641 0.0610
vn 0.9600 0.1362 0.2448
vn 0.9601 0.1363 0.2443
vn 0.9589 0.1403 0.2467
vn 0.7929 0.5733 -0.2064
vn 0.7927 0.5752 -0.2021
vn 0.7932 0.5729 -0.2064
vn 0.9051 0.4147 -0.0942
vn 0.9049 0.4149 -0.0947
vn 0.9041 0.4176 -0.0907
vn 0.4539 0.8519 -0.2613
vn 0.4553 0.8525 -0.2569
vn 0.4543 0.8516 -0.2616
vn 0.6379 0.7235 -0.2638
vn 0.6375 0.7238 -0.2640
vn 0.6380 0.7250 -0.2594
vn -0.7829 0.0217 -0.6218
vn -0.7826 0.0217 -0.6222
vn -0.7825 0.0170 -0.6224
vn -0.6218 0.0217 -0.7829
vn -0.6224 0.0170 -0.7825
vn -0.6222 0.0217 -0.7826
vn -0.9638 -0.1226 -0.2369
vn -0.9637 -0.1224 -0.2373
vn -0.9627 -0.1265 -0.2393
vn -0.9004 -0.0279 -0.4342
vn -0.8997 -0.0325 -0.4353
vn -0.9006 -0.0281 -0.4338
vn -0.9077 -0.4056 0.1073
vn -0.9079 -0.4053 0.1069
vn -0.9070 -0.4082 0.1034
vn -0.9663 -0.2524 -0.0508
vn -0.9652 -0.2560 -0.0537
vn -0.9662 -0.2527 -0.0505
vn -0.6362 -0.7192 0.2793
vn -0.6366 -0.7189 0.2792
vn -0.6368 -0.7204 0.2747
vn -0.7943 -0.5660 0.2207
vn -0.7939 -0.5682 0.2166
vn -0.7940 -0.5664 0.2209
vn -0.2528 -0.9437 0.2134
vn -0.2533 -0.9435 0.2135
vn -0.2552 -0.9440 0.2093
vn -0.4501 -0.8490 0.2767
vn -0.4512 -0.8499 0.2722
vn -0.4497 -0.8493 0.2766
vn 0.0959 -0.9933 -0.0652
vn 0.0955 -0.9933 -0.0649
vn 0.0920 -0.9934 -0.0680
vn -0.0652 -0.9933 0.0959
vn -0.0680 -0.9934 0.0920
vn -0.0649 -0.9933 0.0955
vn 0.2767 -0.8490 -0.4501
vn 0.2766 -0.8493 -0.4497
vn 0.2722 -0.8499 -0.4512
vn 0.2134 -0.9437 -0.2528
vn 0.2093 -0.9440 -0.2552
vn 0.2135 -0.9435 -0.2533
vn 0.2207 -0.5660 -0.7943
vn 0.2209 -0.5664 -0.7940
vn 0.2166 -0.5682 -0.7939
vn 0.2793 -0.7192 -0.6362
vn 0.2747 -0.7204 -0.6368
vn 0.2792 -0.7189 -0.6366
vn -0.0508 -0.2524 -0.9663
vn -0.0505 -0.2527 -0.9662
vn -0.0537 -0.2560 -0.9652
vn 0.1073 -0.4056 -0.9077
vn 0.1034 -0.4082 -0.9070
vn 0.1069 -0.4053 -0.9079
vn -0.4342 -0.0279 -0.9004
vn -0.4338 -0.0281 -0.9006
vn -0.4353 -0.0325 -0.8997
vn -0.2369 -0.1226 -0.9638
vn -0.2393 -0.1265 -0.9627
vn -0.2373 -0.1224 -0.9637
s 0
f 81//1 21//1 1//1
f 21//2 120//2 1//2
f 83//3 22//3 2//3
f 22//4 82//4 2//4
f 85//5 23//5 3//5
f 23//6 84//6 3//6
f 87//7 24//7 4//7
f 24//8 86//8 4//8
f 89//9 25//9 5//9
f 25//10 88//10 5//10
f 91//11 26//11 6//11
f 26//12 90//12 6//12
f 93//13 27//13 7//13
f 27//14 92//14 7//14
f 95//15 28//15 8//15
f 28//16 94//16 8//16
f 97//17 29//17 9//17
f 29//18 96//18 9//18
f 99//19 30//19 10//19
f 30//20 98//20 10//20
f 101//21 31//21 11//21
f 31//22 100//22 11//22
f 103//23 32//23 12//23
f 32//24 102//24 12//24
f 105//25 33//25 13//25
f 33//26 104//26 13//26
f 107//27 34//27 14//27
f 34//28 106//28 14//28
f 109//29 35//29 15//29
f 35//30 108//30 15//30
f 111//31 36//31 16//31
f 36//32 110//32 16//32
f 113//33 37//33 17//33
f 37//34 112//34 17//34
f 115//35 38//35 18//35
f 38//36 114//36 18//36
f 117//37 39//37 19//37
f 39//38 116//38 19//38
f 119//39 40//39 20//39
f 40//40 118//40 20//40
f 41//41 121//41 81//41
f 41//42 122//42 61//42
f 42//43 123//43 83//43
f 42//44 124//44 62//44
f 43//45 125//45 85//45
f 43//46 126//46 63//46
f 44//47 127//47 87//47
f 44//48 128//48 64//48
f 45//49 129//49 89//49
f 45//50 130//50 65//50
f 46//51 131//51 91//51
f 46//52 132//52 66//52
f 47//53 133//53 93//53
f 47//54 134//54 67//54
f 48//55 135//55 95//55
f 48//56 136//56 68//56
f 49//57 137//57 97//57
f 49//58 138//58 69//58
f 50//59 139//59 99//59
f 50//60 140//60 70//60
f 51//61 141//61 101//61
f 51//62 142//62 71//62
f 52//63 143//63 103//63
f 52//64 144//64 72//64
f 53//65 145//65 105//65
f 53//66 146//66 73//66
f 54//67 147//67 107//67
f 54//68 148//68 74//68
f 55//69 149//69 109//69
f 55//70 150//70 75//70
f 56//71 151//71 111//71
f 56//72 152//72 76//72
f 57//73 153//73 113//73
f 57//74 154//74 77//74
f 58//75 155//75 115//75
f 58//76 156//76 78//76
f 59//77 157//77 117//77
f 59//78 158//78 79//78
f 60//79 159//79 119//79
f 60//80 160//80 80//80
f 170//81 159//81 160//81
f 157//82 158//82 170//82
f 123//83 124//83 161//83
f 161//84 121//84 122//84
f 127//85 128//85 162//85
f 162//86 125//86 126//86
f 131//87 132//87 163//87
f 163//88 129//88 130//88
f 135//89 136//89 164//89
f 164//90 133//90 134//90
f 139//91 140//91 165//91
f 165//92 137//92 138//92
f 143//93 144//93 166//93
f 166//94 141//94 142//94
f 147//95 148//95 167//95
f 167//96 145//96 146//96
f 151//97 152//97 168//97
f 168//98 149//98 150//98
f 155//99 156//99 169//99
f 169//100 153//100 154//100
f 171//101 161//101 172//101
f 161//102 162//102 172//102
f 172//103 162//103 173//103
f 162//104 163//104 173//104
f 173//105 163//105 174//105
f 163//106 164//106 174//106
f 174//107 164//107 175//107
f 164//108 165//108 175//108
f 175//109 165//109 176//109
f 165//110 166//110 176//110
f 176//111 166//111 177//111
f 166//112 167//112 177//112
f 177//113 167//113 178//113
f 167//114 168//114 178//114
f 178//115 168//115 179//115
f 168//116 169//116 179//116
f 179//117 169//117 180//117
f 169//118 170//118 180//118
f 180//119 170//119 171//119
f 161//120 170//120 21//120
f 174//121 178//121 180//121
f 181//122 82//122 81//122
f 120//123 119//123 190//123
f 182//124 86//124 85//124
f 84//125 83//125 181//125
f 183//126 90//126 89//126
f 88//127 87//127 182//127
f 184//128 94//128 93//128
f 92//129 91//129 183//129
f 185//130 98//130 97//130
f 96//131 95//131 184//131
f 186//132 102//132 101//132
f 100//133 99//133 185//133
f 187//134 106//134 105//134
f 104//135 103//135 186//135
f 188//136 110//136 109//136
f 108//137 107//137 187//137
f 189//138 114//138 113//138
f 112//139 111//139 188//139
f 190//140 118//140 117//140
f 116//141 115//141 189//141
f 190//142 181//142 1//142
f 181//143 182//143 3//143
f 182//144 183//144 5//144
f 183//145 184//145 7//145
f 184//146 185//146 9//146
f 185//147 186//147 11//147
f 186//148 187//148 13//148
f 187//149 188//149 15//149
f 188//150 189//150 17//150
f 189//151 190//151 19//151
f 81//1 121//1 21//1
f 21//2 160//2 120//2
f 83//3 123//3 22//3
f 22//4 122//4 82//4
f 85//5 125//5 23//5
f 23//6 124//6 84//6
f 87//7 127//7 24//7
f 24//8 126//8 86//8
f 89//9 129//9 25//9
f 25//10 128//10 88//10
f 91//11 131//11 26//11
f 26//12 130//12 90//12
f 93//13 133//13 27//13
f 27//14 132//14 92//14
f 95//15 135//15 28//15
f 28//16 134//16 94//16
f 97//17 137//17 29//17
f 29//18 136//18 96//18
f 99//19 139//19 30//19
f 30//20 138//20 98//20
f 101//21 141//21 31//21
f 31//22 140//22 100//22
f 103//23 143//23 32//23
f 32//24 142//24 102//24
f 105//25 145//25 33//25
f 33//26 144//26 104//26
f 107//27 147//27 34//27
f 34//28 146//28 106//28
f 109//29 149//29 35//29
f 35//30 148//30 108//30
f 111//31 151//31 36//31
f 36//32 150//32 110//32
f 113//33 153//33 37//33
f 37//34 152//34 112//34
f 115//35 155//35 38//35
f 38//36 154//36 114//36
f 117//37 157//37 39//37
f 39//38 156//38 116//38
f 119//39 159//39 40//39
f 40//40 158//40 118//40
f 41//41 61//41 121//41
f 41//42 82//42 122//42
f 42//43 62//43 123//43
f 42//44 84//44 124//44
f 43//45 63//45 125//45
f 43//46 86//46 126//46
f 44//47 64//47 127//47
f 44//48 88//48 128//48
f 45//49 65//49 129//49
f 45//50 90//50 130//50
f 46//51 66//51 131//51
f 46//52 92//52 132//52
f 47//53 67//53 133//53
f 47//54 94//54 134//54
f 48//55 68//55 135//55
f 48//56 96//56 136//56
f 49//57 69//57 137//57
f 49//58 98//58 138//58
f 50//59 70//59 139//59
f 50//60 100//60 140//60
f 51//61 71//61 141//61
f 51//62 102//62 142//62
f 52//63 72//63 143//63
f 52//64 104//64 144//64
f 53//65 73//65 145//65
f 53//66 106//66 146//66
f 54//67 74//67 147//67
f 54//68 108//68 148//68
f 55//69 75//69 149//69
f 55//70 110//70 150//70
f 56//71 76//71 151//71
f 56//72 112//72 152//72
f 57//73 77//73 153//73
f 57//74 114//74 154//74
f 58//75 78//75 155//75
f 58//76 116//76 156//76
f 59//77 79//77 157//77
f 59//78 118//78 158//78
f 60//79 80//79 159//79
f 60//80 120//80 160//80
f 160//152 21//152 170//152
f 170//153 40//153 159//153
f 159//154 80//154 160//154
f 170//155 39//155 157//155
f 157//156 79//156 158//156
f 158//157 40//157 170//157
f 161//158 22//158 123//158
f 123//159 62//159 124//159
f 124//160 23//160 161//160
f 122//161 22//161 161//161
f 161//162 21//162 121//162
f 121//163 61//163 122//163
f 162//164 24//164 127//164
f 127//165 64//165 128//165
f 128//166 25//166 162//166
f 126//167 24//167 162//167
f 162//168 23//168 125//168
f 125//169 63//169 126//169
f 163//170 26//170 131//170
f 131//171 66//171 132//171
f 132//172 27//172 163//172
f 130//173 26//173 163//173
f 163//174 25//174 129//174
f 129//175 65//175 130//175
f 164//176 28//176 135//176
f 135//177 68//177 136//177
f 136//178 29//178 164//178
f 134//179 28//179 164//179
f 164//180 27//180 133//180
f 133//181 67//181 134//181
f 165//182 30//182 139//182
f 139//183 70//183 140//183
f 140//184 31//184 165//184
f 138//185 30//185 165//185
f 165//186 29//186 137//186
f 137//187 69//187 138//187
f 166//188 32//188 143//188
f 143//189 72//189 144//189
f 144//190 33//190 166//190
f 142//191 32//191 166//191
f 166//192 31//192 141//192
f 141//193 71//193 142//193
f 167//194 34//194 147//194
f 147//195 74//195 148//195
f 148//196 35//196 167//196
f 146//197 34//197 167//197
f 167//198 33//198 145//198
f 145//199 73//199 146//199
f 168//200 36//200 151//200
f 151//201 76//201 152//201
f 152//202 37//202 168//202
f 150//203 36//203 168//203
f 168//204 35//204 149//204
f 149//205 75//205 150//205
f 169//206 38//206 155//206
f 155//207 78//207 156//207
f 156//208 39//208 169//208
f 154//209 38//209 169//209
f 169//210 37//210 153//210
f 153//211 77//211 154//211
f 161//102 23//102 162//102
f 162//104 25//104 163//104
f 163//106 27//106 164//106
f 164//108 29//108 165//108
f 165//110 31//110 166//110
f 166//112 33//112 167//112
f 167//114 35//114 168//114
f 168//116 37//116 169//116
f 169//118 39//118 170//118
f 161//120 171//120 170//120
f 180//121 171//121 172//121
f 172//121 173//121 174//121
f 174//121 175//121 176//121
f 176//121 177//121 178//121
f 178//121 179//121 180//121
f 180//121 172//121 174//121
f 174//121 176//121 178//121
f 81//212 1//212 181//212
f 181//213 2//213 82//213
f 82//214 41//214 81//214
f 190//215 1//215 120//215
f 120//216 60//216 119//216
f 119//217 20//217 190//217
f 85//218 3//218 182//218
f 182//219 4//219 86//219
f 86//220 43//220 85//220
f 181//221 3//221 84//221
f 84//222 42//222 83//222
f 83//223 2//223 181//223
f 89//224 5//224 183//224
f 183//225 6//225 90//225
f 90//226 45//226 89//226
f 182//227 5//227 88//227
f 88//228 44//228 87//228
f 87//229 4//229 182//229
f 93//230 7//230 184//230
f 184//231 8//231 94//231
f 94//232 47//232 93//232
f 183//233 7//233 92//233
f 92//234 46//234 91//234
f 91//235 6//235 183//235
f 97//236 9//236 185//236
f 185//237 10//237 98//237
f 98//238 49//238 97//238
f 184//239 9//239 96//239
f 96//240 48//240 95//240
f 95//241 8//241 184//241
f 101//242 11//242 186//242
f 186//243 12//243 102//243
f 102//244 51//244 101//244
f 185//245 11//245 100//245
f 100//246 50//246 99//246
f 99//247 10//247 185//247
f 105//248 13//248 187//248
f 187//249 14//249 106//249
f 106//250 53//250 105//250
f 186//251 13//251 104//251
f 104//252 52//252 103//252
f 103//253 12//253 186//253
f 109//254 15//254 188//254
f 188//255 16//255 110//255
f 110//256 55//256 109//256
f 187//257 15//257 108//257
f 108//258 54//258 107//258
f 107//259 14//259 187//259
f 113//260 17//260 189//260
f 189//261 18//261 114//261
f 114//262 57//262 113//262
f 188//263 17//263 112//263
f 112//264 56//264 111//264
f 111//265 16//265 188//265
f 117//266 19//266 190//266
f 190//267 20//267 118//267
f 118//268 59//268 117//268
f 189//269 19//269 116//269
f 116//270 58//270 115//270
f 115//271 18//271 189//271
f 190//142 191//142 181//142
f 181//143 191//143 182//143
f 182//144 191//144 183//144
f 183//145 191//145 184//145
f 184//146 191//146 185//146
f 185//147 191//147 186//147
f 186//148 191//148 187//148
f 187//149 191//149 188//149
f 188//150 191//150 189//150
f 189//151 191//151 190//151
